<mxfile host="app.diagrams.net" agent="Mozilla/5.0 (Windows NT 10.0; Win64; x64) AppleWebKit/537.36 (KHTML, like Gecko) Chrome/131.0.0.0 Safari/537.36" version="26.0.4">
  <diagram name="Page-1" id="e7e014a7-5840-1c2e-5031-d8a46d1fe8dd">
    <mxGraphModel dx="1087" dy="1091" grid="1" gridSize="10" guides="1" tooltips="1" connect="1" arrows="1" fold="1" page="1" pageScale="1" pageWidth="1169" pageHeight="826" background="none" math="0" shadow="0">
      <root>
        <mxCell id="0" />
        <mxCell id="1" parent="0" />
        <mxCell id="2" value="前端vue" style="swimlane;whiteSpace=wrap" parent="1" vertex="1">
          <mxGeometry x="165" y="300" width="280" height="570" as="geometry" />
        </mxCell>
        <mxCell id="wy-bM0Og7aPfNbXBuaq2-43" value="问答交互页面" style="rounded=0;whiteSpace=wrap;html=1;fontSize=20;" vertex="1" parent="2">
          <mxGeometry x="65.5" y="242" width="120" height="60" as="geometry" />
        </mxCell>
        <mxCell id="3" value="后端express" style="swimlane;whiteSpace=wrap;startSize=23;" parent="1" vertex="1">
          <mxGeometry x="445" y="300" width="280" height="570" as="geometry" />
        </mxCell>
        <mxCell id="wy-bM0Og7aPfNbXBuaq2-41" value="data.json" style="rounded=0;whiteSpace=wrap;html=1;fontSize=20;" vertex="1" parent="3">
          <mxGeometry x="75.5" y="132" width="120" height="60" as="geometry" />
        </mxCell>
        <mxCell id="wy-bM0Og7aPfNbXBuaq2-49" value="后端端口" style="rounded=0;whiteSpace=wrap;html=1;fontSize=20;" vertex="1" parent="3">
          <mxGeometry x="80" y="362" width="120" height="60" as="geometry" />
        </mxCell>
        <mxCell id="4" value="云储存tidb" style="swimlane;whiteSpace=wrap" parent="1" vertex="1">
          <mxGeometry x="725" y="300" width="280" height="570" as="geometry" />
        </mxCell>
        <mxCell id="wy-bM0Og7aPfNbXBuaq2-45" value="info" style="rounded=0;whiteSpace=wrap;html=1;fontSize=20;" vertex="1" parent="4">
          <mxGeometry x="80" y="242" width="120" height="60" as="geometry" />
        </mxCell>
        <mxCell id="wy-bM0Og7aPfNbXBuaq2-47" value="数据爬取" style="rounded=0;whiteSpace=wrap;html=1;fontSize=20;" vertex="1" parent="1">
          <mxGeometry x="525" y="110" width="120" height="60" as="geometry" />
        </mxCell>
        <mxCell id="wy-bM0Og7aPfNbXBuaq2-48" value="" style="shape=flexArrow;endArrow=classic;html=1;rounded=0;exitX=0.5;exitY=1;exitDx=0;exitDy=0;" edge="1" parent="1" source="wy-bM0Og7aPfNbXBuaq2-47">
          <mxGeometry width="50" height="50" relative="1" as="geometry">
            <mxPoint x="530" y="580" as="sourcePoint" />
            <mxPoint x="585" y="430" as="targetPoint" />
          </mxGeometry>
        </mxCell>
        <mxCell id="wy-bM0Og7aPfNbXBuaq2-50" value="/api/ask" style="endArrow=classic;html=1;rounded=0;entryX=1;entryY=0.5;entryDx=0;entryDy=0;exitX=0;exitY=0.5;exitDx=0;exitDy=0;fontSize=20;" edge="1" parent="1" source="wy-bM0Og7aPfNbXBuaq2-49" target="wy-bM0Og7aPfNbXBuaq2-43">
          <mxGeometry width="50" height="50" relative="1" as="geometry">
            <mxPoint x="530" y="780" as="sourcePoint" />
            <mxPoint x="580" y="730" as="targetPoint" />
          </mxGeometry>
        </mxCell>
        <mxCell id="wy-bM0Og7aPfNbXBuaq2-51" value="/get_info" style="endArrow=classic;html=1;rounded=0;entryX=1;entryY=0.5;entryDx=0;entryDy=0;fontSize=20;exitX=-0.022;exitY=0.628;exitDx=0;exitDy=0;exitPerimeter=0;" edge="1" parent="1" source="wy-bM0Og7aPfNbXBuaq2-45" target="wy-bM0Og7aPfNbXBuaq2-49">
          <mxGeometry width="50" height="50" relative="1" as="geometry">
            <mxPoint x="530" y="780" as="sourcePoint" />
            <mxPoint x="580" y="730" as="targetPoint" />
            <mxPoint as="offset" />
          </mxGeometry>
        </mxCell>
        <mxCell id="wy-bM0Og7aPfNbXBuaq2-52" value="nginx.conf" style="rounded=0;whiteSpace=wrap;html=1;fontSize=20;" vertex="1" parent="1">
          <mxGeometry x="230.5" y="110" width="120" height="60" as="geometry" />
        </mxCell>
        <mxCell id="wy-bM0Og7aPfNbXBuaq2-53" value="/config" style="shape=flexArrow;endArrow=classic;html=1;rounded=0;exitX=0.5;exitY=1;exitDx=0;exitDy=0;fontSize=20;" edge="1" parent="1" source="wy-bM0Og7aPfNbXBuaq2-52" target="wy-bM0Og7aPfNbXBuaq2-43">
          <mxGeometry width="50" height="50" relative="1" as="geometry">
            <mxPoint x="530" y="480" as="sourcePoint" />
            <mxPoint x="580" y="430" as="targetPoint" />
          </mxGeometry>
        </mxCell>
        <mxCell id="wy-bM0Og7aPfNbXBuaq2-57" value="/insert_info" style="endArrow=classic;html=1;rounded=0;exitX=1;exitY=0.5;exitDx=0;exitDy=0;entryX=0;entryY=0.5;entryDx=0;entryDy=0;fontSize=20;" edge="1" parent="1" source="wy-bM0Og7aPfNbXBuaq2-41" target="wy-bM0Og7aPfNbXBuaq2-45">
          <mxGeometry width="50" height="50" relative="1" as="geometry">
            <mxPoint x="530" y="680" as="sourcePoint" />
            <mxPoint x="580" y="630" as="targetPoint" />
          </mxGeometry>
        </mxCell>
      </root>
    </mxGraphModel>
  </diagram>
</mxfile>
